# xmcd CD database file
#
# Track frame offsets:
#	182
#	11585
#	27057
#	41135
#	53792
#	70172
#	79840
#	89725
#	103912
#	114180
#	128565
#	139447
#	151170
#	173942
#	189402
#	201095
#	214165
#	226967
#	240477
#	252485
#
# Disc length: 3591 seconds
#
# Revision: 5
# Processed by: cddbd v1.5.2PL0 Copyright (c) Steve Scherf et al.
# Submitted via: CDex 1.70beta2
#
DISCID=140e0514
DTITLE=Various Artist - Spirit Of Blues (Old School)
DYEAR=1998
DGENRE=Blues
TTITLE0=John Lee Hooker - Boom Boom
TTITLE1=Big Joe Williams and Sonny Boy Williamson - Baby Please Don't Go
TTITLE2=Otis Rush - I Can't Quit You Baby
TTITLE3=Elmore James - The Sky Is Crying
TTITLE4=Muddy Waters - Mannish Boy (live)
TTITLE5=Eric Clapton - Tribute To Elmore
TTITLE6=John Mayall& The Bluesbreakers - I'm Your Wichdoctor
TTITLE7=Memphis Slim - Slim's Blues
TTITLE8=Junior Wells - Messin' With The Kid
TTITLE9=Sonny Boy Williamson - Highway 69
TTITLE10=Champion Jack Dupree - Shake Baby Shake
TTITLE11=John Lee Hooker - Bogie Chillun
TTITLE12=B. B. King - The Trill Is Gone (live
TTITLE13=Albert King - Born Under A Bad Sign
TTITLE14=Howlin' Wolf - Howlin' For My Baby
TTITLE15=Elmore James - Dust My Broom
TTITLE16=T-Bone Walker - Stormy Monday Blue
TTITLE17=Lithnin' Hopkins - Rolling and Rolling
TTITLE18=Jimmy Reed - Bright Lights, Big City
TTITLE19=Robert Cray - Who's Been Talking
EXTD=Spirit Of Blues YEAR: 1998
EXTT0=
EXTT1=
EXTT2=
EXTT3=
EXTT4=
EXTT5=
EXTT6=
EXTT7=
EXTT8=
EXTT9=
EXTT10=
EXTT11=
EXTT12=
EXTT13=
EXTT14=
EXTT15=
EXTT16=
EXTT17=
EXTT18=
EXTT19=
PLAYORDER=
